<?xml version="1.0" standalone="no"?><!DOCTYPE svg PUBLIC "-//W3C//DTD SVG 1.1//EN" "http://www.w3.org/Graphics/SVG/1.1/DTD/svg11.dtd"><svg t="1673702404297" class="icon" viewBox="0 0 1024 1024" version="1.1" xmlns="http://www.w3.org/2000/svg" p-id="13746" xmlns:xlink="http://www.w3.org/1999/xlink" width="200" height="200"><path d="M963.992 60.012C925.294 21.312 873.844 0 819.118 0s-106.178 21.312-144.876 60.01L101.652 632.602a40 40 0 0 0-10.25 17.558L1.466 973.274a40 40 0 0 0 49.464 49.202l323.114-91.782a40 40 0 0 0 17.398-66.718L187.738 659.654 662.368 185.022l176.516 176.516-363.348 362.358c-15.642 15.6-15.676 40.926-0.076 56.568 15.598 15.644 40.928 15.676 56.568 0.078l431.96-430.784C1002.688 311.06 1024 259.61 1024 204.884s-21.312-106.176-60.008-144.872zM286.79 872.316L97.654 926.04l52.97-190.304 136.166 136.58zM907.46 293.15l-11.93 11.898-176.592-176.594 11.876-11.876C754.4 92.99 785.76 80 819.118 80c33.358 0 64.716 12.99 88.304 36.58C931.01 140.166 944 171.526 944 204.884c0 33.358-12.99 64.718-36.54 88.266z" p-id="13747"></path></svg>